<svg viewBox="0 0 32 32" fill="none" xmlns="http://www.w3.org/2000/svg"><rect width="32" height="32" rx="8" fill="#EEE"/><path d="M5.83 20.98a4.48 4.48 0 0 1-.82-2.9v-4.17c-.07-1.03.2-2.06.8-2.92.54-.66 1.46-1 2.76-.99 1.3 0 2.19.3 2.65.87.56.72.83 1.61.77 2.5v.99h-2.4v-1.07c0-.28-.03-.56-.08-.83a.92.92 0 0 0-.27-.53.92.92 0 0 0-.67-.2.88.88 0 0 0-.5.07.83.83 0 0 0-.37.34c-.16.39-.22.8-.2 1.22v5.3c-.03.43.05.85.23 1.23.08.14.2.26.35.33.15.07.32.1.49.08.16.02.33 0 .47-.08a.77.77 0 0 0 .34-.33c.14-.4.2-.8.18-1.22v-1.12h2.4v.97a3.9 3.9 0 0 1-.7 2.57c-.52.6-1.4.91-2.66.91-1.25 0-2.23-.33-2.77-1.02Zm9.37-10.98h2.6l2.2 12h-2.16l-.39-2.65h-1.82l-.44 2.63h-2.19l2.2-11.98Zm2.01 7.84-.7-4.82-.68 4.82h1.38Zm4.6-6.04h-1.81v-1.8h6v1.8h-1.8v10.2h-2.4l.01-10.2Z" fill="#111"/></svg>